# xmcd CD database file
#
# Track frame offsets:
#	150
#	19085
#	42692
#	66605
#	90982
#	112612
#	135375
#	157060
#	177585
#	201490
#
# Disc length: 3001 seconds
#
# Revision: 3
# Processed by: cddbd v1.5.2PL0 Copyright (c) Steve Scherf et al.
# Submitted via: CDex 1.51
#
DISCID=8c0bb70a
DTITLE=李翊君 - 重生
DYEAR=2001
DGENRE=Blues
TTITLE0=重生
TTITLE1=太陽
TTITLE2=Remember
TTITLE3=一千零一夜
TTITLE4=完美的女人
TTITLE5=隨時可能會流淚
TTITLE6=容易受傷的女人
TTITLE7=天涯
TTITLE8=兩個人的月亮
TTITLE9=男人緣
EXTD=YEAR: 2001
EXTT0=
EXTT1=
EXTT2=
EXTT3=
EXTT4=
EXTT5=
EXTT6=
EXTT7=
EXTT8=
EXTT9=
PLAYORDER=
